<?xml version="1.0" standalone="no"?>
<!DOCTYPE svg PUBLIC "-//W3C//DTD SVG 20010904//EN"
 "http://www.w3.org/TR/2001/REC-SVG-20010904/DTD/svg10.dtd">
<svg version="1.0" xmlns="http://www.w3.org/2000/svg"
  viewBox="0 0 549.000000 107.000000"
 preserveAspectRatio="xMidYMid meet">

<g transform="translate(0.000000,107.000000) scale(0.100000,-0.100000)"
fill="#000000" stroke="none">
<path d="M604 1060 c-118 -17 -245 -75 -319 -146 -127 -122 -158 -272 -74
-356 32 -32 36 -32 122 4 37 16 47 25 47 44 0 14 -8 25 -20 29 -33 10 -60 54
-60 97 0 186 338 344 528 246 68 -35 103 -89 109 -171 5 -55 2 -73 -20 -120
-26 -56 -51 -81 -98 -92 -18 -4 -29 -15 -32 -31 -3 -20 2 -27 28 -40 60 -28
78 -118 51 -255 -29 -146 -88 -235 -131 -199 -8 7 -15 27 -15 45 0 18 -9 43
-19 56 l-19 23 -31 -33 c-54 -58 -54 -97 0 -130 47 -29 114 -34 184 -16 152
40 245 157 245 305 0 104 -43 173 -134 216 -41 19 -47 24 -30 30 104 36 166
78 193 132 49 97 35 180 -43 258 -95 94 -265 133 -462 104z"/>
<path d="M715 891 c-132 -62 -187 -153 -220 -363 -51 -324 -108 -447 -218
-465 -29 -4 -40 -1 -62 21 -26 26 -27 31 -23 109 3 78 2 82 -19 85 -29 4 -119
-43 -139 -73 -26 -39 -11 -111 31 -151 102 -96 343 -56 478 80 98 98 129 181
167 446 24 173 33 203 73 254 23 30 28 43 20 55 -14 23 -42 24 -88 2z"/>
<path d="M1731 626 l-94 -21 -51 -165 c-29 -91 -62 -182 -75 -203 -32 -53 -99
-107 -132 -107 -42 0 -52 21 -47 98 4 54 73 316 103 395 9 22 -12 21 -115 -1
l-74 -17 -29 -90 c-106 -330 -85 -505 60 -505 56 0 106 26 192 100 l69 59 7
-46 c9 -65 58 -113 112 -113 57 1 109 29 210 113 90 76 187 183 278 307 26 36
53 63 59 61 6 -2 55 -7 110 -10 l98 -6 -164 -200 c-185 -226 -210 -260 -201
-269 13 -12 43 -5 79 19 46 31 64 31 186 -1 143 -39 150 -36 313 129 72 73
166 179 209 237 44 58 84 103 90 101 6 -2 55 -7 110 -10 l98 -6 -164 -200
c-185 -226 -210 -260 -201 -269 13 -12 43 -5 79 19 46 31 64 31 186 -1 130
-35 152 -29 258 72 l79 75 12 -40 c16 -54 62 -107 105 -121 66 -22 117 1 211
96 45 45 84 79 87 76 3 -3 6 -20 6 -38 0 -77 51 -144 107 -144 35 1 99 39 175
104 l77 67 12 -40 c16 -54 62 -107 105 -121 66 -22 117 1 211 96 45 45 84 79
87 76 3 -3 6 -21 6 -41 0 -20 9 -54 19 -77 37 -81 111 -81 213 -2 70 55 210
201 252 262 28 42 41 51 88 66 l56 17 -39 -71 c-52 -98 -73 -182 -59 -237 6
-23 23 -53 36 -66 22 -22 32 -25 80 -21 44 4 67 13 122 51 37 25 84 63 105 85
33 34 38 45 35 77 l-3 38 -51 -46 c-73 -66 -98 -74 -130 -42 -33 33 -29 62 33
240 69 200 77 224 72 229 -2 2 -17 2 -32 -1 -20 -4 -39 -22 -68 -64 -41 -61
-93 -103 -141 -114 l-27 -7 15 48 c36 120 -1 171 -92 128 -42 -20 -80 -82 -89
-145 -6 -42 -4 -49 24 -82 l31 -35 -56 -68 c-62 -77 -139 -148 -170 -158 -11
-3 -28 0 -38 7 -34 25 -22 104 52 355 l40 132 -24 0 c-14 0 -56 -18 -94 -40
l-70 -39 -17 25 c-40 62 -134 72 -230 24 -120 -60 -228 -190 -254 -306 -10
-46 -20 -60 -68 -102 -65 -57 -90 -67 -115 -49 -34 25 -22 104 52 355 l40 132
-24 0 c-14 0 -56 -18 -94 -40 l-70 -39 -17 25 c-40 62 -134 72 -229 24 -123
-62 -216 -171 -254 -301 -17 -57 -28 -73 -68 -108 -27 -22 -60 -43 -75 -46
-15 -4 -69 0 -120 9 -50 8 -105 17 -121 18 -30 3 -28 5 95 153 176 213 194
236 213 273 l17 34 -68 -9 c-85 -10 -191 -10 -263 0 l-55 7 -52 -82 c-110
-175 -307 -392 -366 -403 -19 -4 -74 0 -123 9 -49 9 -102 17 -118 18 -30 3
-28 5 95 153 176 213 194 236 213 273 l17 34 -68 -9 c-85 -10 -192 -10 -263 0
l-55 8 -33 -55 c-89 -149 -284 -373 -369 -423 -44 -26 -74 -22 -87 13 -9 23
-7 77 3 110 43 136 102 346 99 352 -1 5 -45 0 -97 -12z m2071 -63 c23 -20 25
-116 3 -186 -34 -112 -108 -218 -162 -232 -31 -8 -70 17 -84 53 -25 66 55 288
126 351 40 35 87 41 117 14z m780 0 c23 -20 25 -116 3 -186 -34 -112 -108
-218 -162 -232 -31 -8 -70 17 -84 53 -25 66 55 288 126 351 40 35 87 41 117
14z"/>
</g>
</svg>
